# xmcd
# 
# Track frame offsets:
#     150
#     17725
#     38107
#     55415
#     77217
#     92167
#     107727
#     126490
#     141975
#     157937
#     173522
#     188925
#     202987
#     217487
#     231797
#     244840
#     260962
#     273232
#     289757
#     307107
# 
# Disc length: 4263
# 
# Revision: 3
# Processed by: cddbd v1.5.2PL0 Copyright (c) Steve Scherf et al.
# Submitted via: BonkEnc v1.0.8
# 
DISCID=3210a514
DTITLE=J. Neto - As canções que Deus fez pra mim
DYEAR=0
DGENRE=Acid Jazz
TTITLE0=É Bonita
TTITLE1=O nome
TTITLE2=O retorno
TTITLE3=Fogo no altar
TTITLE4=Nazareno
TTITLE5=Brilho do Sol
TTITLE6=Água viva
TTITLE7=Mistério Profundo
TTITLE8=Último Discípulo
TTITLE9=Sinto o amor de Deus
TTITLE10=Não sou tolo
TTITLE11=Volta correndo
TTITLE12=Vinde a mim
TTITLE13=Não tente sozinho
TTITLE14=Com Jesus é melhor
TTITLE15=O rosto de Cristo
TTITLE16=Só cantar
TTITLE17=Não toque no vaso
TTITLE18=Vaso novo
TTITLE19=Quero me refazer
EXTD=
EXTT0=
EXTT1=
EXTT2=
EXTT3=
EXTT4=
EXTT5=
EXTT6=
EXTT7=
EXTT8=
EXTT9=
EXTT10=
EXTT11=
EXTT12=
EXTT13=
EXTT14=
EXTT15=
EXTT16=
EXTT17=
EXTT18=
EXTT19=
PLAYORDER=
